<svg viewBox="0 0 512 512"><rect height="512" rx="64" ry="64" width="512" x="0" y="0" fill="#828282"/><g transform="matrix(1.5537946,0,0,1.5537946,-140.87332,-132.64552)"><rect height="166" width="55.2" x="130" y="200.4" fill="#fff"/><path d="m157.9 120.3c-18.9 0-31.2 12.4-31.2 28.7 0 15.9 12 28.7 30.5 28.7h0.4c19.2 0 31.2-12.8 31.2-28.7-0.4-16.3-12-28.7-30.8-28.7zM320.6 196.5 320.6 196.5c-29.3 0-42.4 16.1-49.7 27.4v-23.5h-55.2c0.7 15.6 0 166 0 166h55.2V273.7c0-5 0.4-9.9 1.8-13.5 4-9.9 13.1-20.2 28.3-20.2 20 0 28 15.2 28 37.5v88.8h55.2v-95.2c0-51-27.2-74.7-63.5-74.7z"/></g></svg>
